<?xml version="1.0" encoding="UTF-8"?>
<svg viewBox="0 0 94 65" version="1.1" xmlns="http://www.w3.org/2000/svg" xmlns:xlink="http://www.w3.org/1999/xlink">
    <defs>
        <polygon id="path-1" points="31.583 0.365272696 31.583 46.9951 0.495789372 46.9951 0.495789372 0.365272696"></polygon>
    </defs>
    <g id="Page-1" stroke="none" stroke-width="1" fill="none" fill-rule="evenodd">
        <g transform="translate(0.000000, -1.000000)">
            <path d="M3.0339,54.3876 L-0.0001,63.0956 L1.7919,63.0956 L2.4449,61.0436 L5.2869,61.0436 L5.9399,63.0956 L7.7319,63.0956 L4.6979,54.3876 L3.0339,54.3876 Z M3.8659,56.5276 L4.8129,59.5496 L2.9199,59.5496 L3.8659,56.5276 Z" id="Fill-1" fill="#333038"></path>
            <g id="Group-37" transform="translate(0.000000, 0.634900)">
                <path d="M10.3571,62.4614 L8.7701,62.4614 L8.7701,56.1904 L10.3571,56.1904 L10.3571,57.2114 C10.8181,56.5024 11.5091,56.0914 12.2641,56.0914 C12.5081,56.0914 12.7641,56.1284 13.0451,56.2154 L12.7511,57.6464 C12.5591,57.5344 12.3281,57.4724 12.0851,57.4724 C11.0741,57.4724 10.3571,58.3304 10.3571,60.2344 L10.3571,62.4614 Z" id="Fill-2" fill="#333038"></path>
                <path d="M19.6511,60.7695 C19.1521,61.9635 18.1791,62.5615 16.7201,62.5615 C15.7081,62.5615 14.9401,62.2505 14.3901,61.6405 C13.8391,61.0305 13.5701,60.2595 13.5701,59.3265 C13.5701,58.3935 13.8391,57.6215 14.3901,57.0125 C14.9401,56.4025 15.7081,56.0915 16.7201,56.0915 C18.1791,56.0915 19.1521,56.6885 19.6511,57.8835 L18.2301,58.4435 C17.8841,57.7585 17.3721,57.4105 16.7201,57.4105 C15.7471,57.4105 15.2351,58.1815 15.2351,59.3265 C15.2351,60.4705 15.7471,61.2425 16.7201,61.2425 C17.3721,61.2425 17.8841,60.8945 18.2301,60.2095 L19.6511,60.7695 Z" id="Fill-4" fill="#333038"></path>
                <path d="M20.9319,53.6523 L22.5189,53.6523 L22.5189,57.1983 C22.9929,56.4653 23.6839,56.0913 24.5679,56.0913 C25.8089,56.0913 26.5769,56.7383 26.5769,57.9823 L26.5769,62.4623 L24.9899,62.4623 L24.9899,58.5293 C24.9899,57.7833 24.6699,57.4103 24.0299,57.4103 C23.2109,57.4103 22.5189,58.2313 22.5189,59.8113 L22.5189,62.4623 L20.9319,62.4623 L20.9319,53.6523 Z" id="Fill-6" fill="#333038"></path>
                <path d="M34.028,59.8237 L29.586,59.8237 C29.624,60.5827 30.188,61.2417 31.109,61.2417 C31.762,61.2417 32.287,60.9187 32.671,60.2717 L33.951,60.7317 C33.401,61.9517 32.428,62.5607 31.02,62.5607 C28.805,62.5607 27.922,60.8187 27.922,59.3257 C27.922,57.8327 28.805,56.0917 31.02,56.0917 C32.044,56.0917 32.876,56.5017 33.337,57.1357 C33.798,57.7457 34.028,58.4797 34.028,59.1887 L34.028,59.8237 Z M29.624,58.6047 L32.402,58.6047 C32.223,57.8077 31.762,57.4097 31.02,57.4097 C30.264,57.4097 29.74,57.9447 29.624,58.6047 L29.624,58.6047 Z" id="Fill-8" fill="#333038"></path>
                <path d="M39.3152,62.3369 C38.9822,62.4859 38.6372,62.5609 38.2652,62.5609 C36.7802,62.5609 35.8972,61.7769 35.8972,60.2469 L35.8972,57.5099 L34.8992,57.5099 L34.8992,56.1909 L35.8972,56.1909 L35.8972,54.6229 L37.4842,53.6529 L37.4842,56.1909 L39.1872,56.1909 L39.1872,57.5099 L37.4842,57.5099 L37.4842,60.2219 C37.4842,60.9689 37.7662,61.2419 38.3292,61.2419 C38.5472,61.2419 38.7522,61.1919 38.9442,61.0929 L39.3152,62.3369 Z" id="Fill-10" fill="#333038"></path>
                <polygon id="Fill-12" fill="#333038" points="39.9685 56.1909 41.5685 56.1909 43.0665 60.1219 44.4745 56.1909 46.0615 56.1909 42.7335 64.9999 41.1975 64.9999 42.3115 62.0629"></polygon>
                <path d="M48.571,61.8892 L48.571,64.9992 L46.984,64.9992 L46.984,56.1912 L48.571,56.1912 L48.571,56.8372 C48.776,56.4772 49.403,56.0912 50.133,56.0912 C52.027,56.0912 53.077,57.3472 53.077,59.3262 C53.077,61.3042 52.027,62.5612 50.133,62.5612 C49.505,62.5612 48.865,62.2502 48.571,61.8892 M51.413,59.3262 C51.413,58.7292 51.272,58.2562 50.99,57.9202 C50.709,57.5842 50.35,57.4102 49.915,57.4102 C49.48,57.4102 49.121,57.5842 48.84,57.9202 C48.571,58.2562 48.43,58.7162 48.43,59.3262 C48.43,59.9362 48.571,60.4092 48.84,60.7442 C49.121,61.0802 49.48,61.2422 49.915,61.2422 C50.35,61.2422 50.709,61.0682 50.99,60.7322 C51.272,60.3962 51.413,59.9232 51.413,59.3262" id="Fill-14" fill="#333038"></path>
                <path d="M60.3742,59.8237 L55.9322,59.8237 C55.9702,60.5827 56.5342,61.2417 57.4552,61.2417 C58.1082,61.2417 58.6332,60.9187 59.0172,60.2717 L60.2972,60.7317 C59.7472,61.9517 58.7742,62.5607 57.3662,62.5607 C55.1512,62.5607 54.2682,60.8187 54.2682,59.3257 C54.2682,57.8327 55.1512,56.0917 57.3662,56.0917 C58.3902,56.0917 59.2222,56.5017 59.6832,57.1357 C60.1442,57.7457 60.3742,58.4797 60.3742,59.1887 L60.3742,59.8237 Z M55.9702,58.6047 L58.7482,58.6047 C58.5692,57.8077 58.1082,57.4097 57.3662,57.4097 C56.6102,57.4097 56.0862,57.9447 55.9702,58.6047 L55.9702,58.6047 Z" id="Fill-16" fill="#333038"></path>
                <polygon id="Fill-18" fill="#333038" points="62.1286 53.752 63.1786 53.752 65.8406 60.31 68.5036 53.752 69.5536 53.752 69.5536 62.461 68.7086 62.461 68.7086 55.345 66.1096 61.665 65.5716 61.665 62.9736 55.345 62.9736 62.461 62.1286 62.461"></polygon>
                <path d="M76.9402,59.3262 L72.0762,59.3262 C72.0762,60.8192 72.8442,61.8392 74.1112,61.8392 C75.0842,61.8392 75.6222,61.4532 76.0952,60.4952 L76.7992,60.8312 C76.1462,62.0762 75.3402,62.5612 74.1112,62.5612 C73.2532,62.5612 72.5622,62.2622 72.0372,61.6522 C71.5122,61.0432 71.2442,60.2592 71.2442,59.3262 C71.2442,58.3932 71.5122,57.6212 72.0372,57.0122 C72.5622,56.4022 73.2532,56.0912 74.1112,56.0912 C74.9432,56.0912 75.6222,56.3522 76.1462,56.8872 C76.6712,57.4222 76.9402,58.1192 76.9402,58.9782 L76.9402,59.3262 Z M72.1272,58.6042 L76.1212,58.6042 C75.9672,57.4972 75.2502,56.8132 74.1112,56.8132 C73.0742,56.8132 72.3442,57.5472 72.1272,58.6042 L72.1272,58.6042 Z" id="Fill-20" fill="#333038"></path>
                <path d="M83.2771,53.6523 L84.0961,53.6523 L84.0961,62.4623 L83.2771,62.4623 L83.2771,61.6403 C82.9311,62.1373 82.0871,62.5603 81.2671,62.5603 C80.3581,62.5603 79.6541,62.2623 79.1421,61.6523 C78.6431,61.0443 78.3871,60.2593 78.3871,59.3263 C78.3871,58.3923 78.6431,57.6223 79.1421,57.0113 C79.6541,56.4023 80.3581,56.0913 81.2671,56.0913 C81.9711,56.0913 82.8161,56.4893 83.2771,57.0733 L83.2771,53.6523 Z M81.3061,61.8403 C82.6371,61.8403 83.3791,60.8063 83.3791,59.3263 C83.3791,58.5913 83.2001,57.9943 82.8291,57.5213 C82.4701,57.0493 81.9581,56.8123 81.3061,56.8123 C80.6531,56.8123 80.1411,57.0493 79.7691,57.5213 C79.3981,57.9943 79.2191,58.5913 79.2191,59.3263 C79.2191,60.8063 79.9741,61.8403 81.3061,61.8403 L81.3061,61.8403 Z" id="Fill-22" fill="#333038"></path>
                <path d="M86.1452,53.9385 C86.4012,53.6895 86.8362,53.6895 87.0802,53.9385 C87.3352,54.1745 87.3352,54.5975 87.0802,54.8465 C86.8362,55.0845 86.4012,55.0845 86.1452,54.8465 C85.9022,54.5975 85.9022,54.1745 86.1452,53.9385 L86.1452,53.9385 Z M86.2222,62.4615 L87.0162,62.4615 L87.0162,56.1905 L86.2222,56.1905 L86.2222,62.4615 Z" id="Fill-24" fill="#333038"></path>
                <path d="M93.5827,62.4614 L92.9807,62.4614 L92.7887,61.4914 C92.3667,62.2004 91.6877,62.5614 90.7537,62.5614 C89.5757,62.5614 88.7437,61.9514 88.7437,60.6574 C88.7437,59.3014 89.8577,58.6044 91.7137,58.6044 L92.7887,58.6044 L92.7887,58.3304 C92.7887,57.2854 92.2257,56.8134 91.3037,56.8134 C90.5237,56.8134 90.0107,57.1984 89.7677,57.9824 L88.9997,57.8084 C89.1667,56.7634 90.1267,56.0914 91.3037,56.0914 C91.9567,56.0914 92.5077,56.2904 92.9297,56.6884 C93.3647,57.0744 93.5827,57.6214 93.5827,58.3054 L93.5827,62.4614 Z M90.8307,61.8394 C91.3297,61.8394 91.7777,61.6524 92.1747,61.2794 C92.5837,60.9064 92.7887,60.3334 92.7887,59.5624 L92.7887,59.3264 L91.7397,59.3264 C90.3057,59.3264 89.5757,59.8114 89.5757,60.6574 C89.5757,61.4164 90.0497,61.8394 90.8307,61.8394 L90.8307,61.8394 Z" id="Fill-26" fill="#333038"></path>
                <g id="Group-30" transform="translate(62.000000, 0.000000)">
                    <mask id="mask-2" fill="white">
                        <use xlink:href="#path-1"></use>
                    </mask>
                    <g id="Clip-29"></g>
                    <path d="M24.0388,46.9951 C21.2848,46.9951 18.6308,45.4831 17.2998,42.8581 L1.3138,11.3301 C-0.5722,7.6111 0.9138,3.0681 4.6328,1.1831 C8.3508,-0.7029 12.8938,0.7841 14.7798,4.5021 L30.7658,36.0301 C32.6508,39.7491 31.1648,44.2921 27.4468,46.1771 C26.3528,46.7321 25.1868,46.9951 24.0388,46.9951" id="Fill-28" fill="#0000FF" mask="url(#mask-2)"></path>
                </g>
                <path d="M62.7839,46.9951 C60.0299,46.9951 57.3759,45.4831 56.0449,42.8581 L40.0589,11.3301 C38.1729,7.6111 39.6589,3.0681 43.3779,1.1831 C47.0969,-0.7029 51.6389,0.7841 53.5249,4.5021 L69.5109,36.0301 C71.3959,39.7491 69.9099,44.2921 66.1919,46.1771 C65.0979,46.7321 63.9319,46.9951 62.7839,46.9951" id="Fill-31" fill="#0000FF"></path>
                <path d="M46.2561,36.0303 L30.3021,4.5663 C30.3011,4.5633 30.2991,4.5593 30.2971,4.5563 L30.2701,4.5023 C30.2421,4.4473 30.2141,4.3953 30.1861,4.3443 C29.4811,3.0293 28.3821,1.9093 26.9511,1.1833 C23.2321,-0.7027 18.6891,0.7833 16.8041,4.5023 L15.0731,7.9163 L23.5371,24.6093 L32.7901,42.8583 C34.1211,45.4823 36.7751,46.9953 39.5291,46.9953 C40.6771,46.9953 41.8431,46.7323 42.9371,46.1773 C46.6551,44.2923 48.1411,39.7493 46.2561,36.0303" id="Fill-33" fill="#0000FF"></path>
                <path d="M3.4455,30.8477 L0.8175,36.0307 C-1.0675,39.7487 0.4185,44.2917 4.1365,46.1767 C5.2315,46.7317 6.3965,46.9947 7.5445,46.9947 C9.1065,46.9947 10.6355,46.5077 11.9095,45.6077 C12.8825,44.9207 13.7075,43.9947 14.2835,42.8577 L20.3735,30.8477 L11.9095,14.1557 L3.4455,30.8477 Z" id="Fill-35" fill="#7373FF"></path>
            </g>
        </g>
    </g>
</svg>
