<?xml version="1.0" encoding="UTF-8"?>
<svg viewBox="0 0 94 47" version="1.1" xmlns="http://www.w3.org/2000/svg" xmlns:xlink="http://www.w3.org/1999/xlink">
    <defs>
        <polygon id="path-1" points="31.583 0.365272696 31.583 46.9951 0.495789372 46.9951 0.495789372 0.365272696"></polygon>
    </defs>
    <g id="Page-1" stroke="none" stroke-width="1" fill="none" fill-rule="evenodd">
        <g transform="translate(0.000000, -1.000000)" id="Group">
            <g>
                <g id="Group-37" transform="translate(0.000000, 0.634900)">
                    <g id="Group-30" transform="translate(62.000000, 0.000000)">
                        <g id="Fill-28-Clipped">
                            <mask id="mask-2" fill="white">
                                <use xlink:href="#path-1"></use>
                            </mask>
                            <g id="path-1"></g>
                            <path d="M24.0388,46.9951 C21.2848,46.9951 18.6308,45.4831 17.2998,42.8581 L1.3138,11.3301 C-0.5722,7.6111 0.9138,3.0681 4.6328,1.1831 C8.3508,-0.7029 12.8938,0.7841 14.7798,4.5021 L30.7658,36.0301 C32.6508,39.7491 31.1648,44.2921 27.4468,46.1771 C26.3528,46.7321 25.1868,46.9951 24.0388,46.9951" id="Fill-28" fill="#FFFFFF" fill-rule="nonzero" mask="url(#mask-2)"></path>
                        </g>
                    </g>
                    <path d="M62.7839,46.9951 C60.0299,46.9951 57.3759,45.4831 56.0449,42.8581 L40.0589,11.3301 C38.1729,7.6111 39.6589,3.0681 43.3779,1.1831 C47.0969,-0.7029 51.6389,0.7841 53.5249,4.5021 L69.5109,36.0301 C71.3959,39.7491 69.9099,44.2921 66.1919,46.1771 C65.0979,46.7321 63.9319,46.9951 62.7839,46.9951" id="Fill-31" fill="#FFFFFF" fill-rule="nonzero"></path>
                    <path d="M46.2561,36.0303 L30.3021,4.5663 C30.3011,4.5633 30.2991,4.5593 30.2971,4.5563 L30.2701,4.5023 C30.2421,4.4473 30.2141,4.3953 30.1861,4.3443 C29.4811,3.0293 28.3821,1.9093 26.9511,1.1833 C23.2321,-0.7027 18.6891,0.7833 16.8041,4.5023 L15.0731,7.9163 L23.5371,24.6093 L32.7901,42.8583 C34.1211,45.4823 36.7751,46.9953 39.5291,46.9953 C40.6771,46.9953 41.8431,46.7323 42.9371,46.1773 C46.6551,44.2923 48.1411,39.7493 46.2561,36.0303" id="Fill-33" fill="#FFFFFF" fill-rule="nonzero"></path>
                    <path d="M3.4455,30.8477 L0.8175,36.0307 C-1.0675,39.7487 0.4185,44.2917 4.1365,46.1767 C5.2315,46.7317 6.3965,46.9947 7.5445,46.9947 C9.1065,46.9947 10.6355,46.5077 11.9095,45.6077 C12.8825,44.9207 13.7075,43.9947 14.2835,42.8577 L20.3735,30.8477 L11.9095,14.1557 L3.4455,30.8477 Z" id="Fill-35" fill="#FFFFFF" fill-rule="nonzero"></path>
                </g>
            </g>
        </g>
    </g>
</svg>
