{% if include.inverted %}
  {% assign color = 'white' %}
{% else %}
  {% assign color = 'blue' %}
{% endif %}

<?xml version="1.0" encoding="UTF-8" standalone="no"?>
<svg viewBox="0 0 171 119" version="1.1" xmlns="http://www.w3.org/2000/svg" xmlns:xlink="http://www.w3.org/1999/xlink">
    <title>Archetype Media</title>
    <defs>
        <polygon id="path-1" points="0 118 170.844 118 170.844 0.731 0 0.731"></polygon>
    </defs>
    <g id="Page-1" stroke="none" stroke-width="1" fill="none" fill-rule="evenodd">
        <g>
            <g id="Group-31" transform="translate(0.000000, 0.269000)">
                <path d="M155.4722,85.8641 C150.5562,85.8641 145.8192,83.1651 143.4442,78.4811 L114.9112,22.2071 C111.5462,15.5701 114.1982,7.4621 120.8352,4.0971 C127.4722,0.7311 135.5802,3.3841 138.9462,10.0211 L167.4792,66.2941 C170.8442,72.9311 168.1922,81.0401 161.5552,84.4051 C159.6022,85.3951 157.5212,85.8641 155.4722,85.8641" id="Fill-27" class="fill-{{ color }}" mask="url(#mask-2)"></path>
                <path d="M113.9657,85.8641 C109.0497,85.8641 104.3127,83.1651 101.9377,78.4811 L73.4047,22.2071 C70.0397,15.5701 72.6917,7.4621 79.3287,4.0971 C85.9657,0.7301 94.0747,3.3841 97.4397,10.0211 L125.9727,66.2941 C129.3377,72.9311 126.6857,81.0401 120.0487,84.4051 C118.0957,85.3951 116.0147,85.8641 113.9657,85.8641" id="Fill-28" class="fill-{{ color }}" mask="url(#mask-2)"></path>
                <path d="M84.4659,66.2941 L55.9909,10.1351 C55.9879,10.1291 55.9849,10.1231 55.9819,10.1171 L55.9329,10.0211 C55.8839,9.9231 55.8339,9.8301 55.7839,9.7391 C54.5259,7.3921 52.5639,5.3921 50.0089,4.0971 C43.3719,0.7311 35.2629,3.3841 31.8979,10.0211 L28.8079,16.1141 L43.9159,45.9081 L60.4309,78.4811 C62.8059,83.1651 67.5429,85.8641 72.4589,85.8641 C74.5079,85.8641 76.5889,85.3951 78.5419,84.4051 C85.1789,81.0401 87.8309,72.9311 84.4659,66.2941" id="Fill-29" class="fill-{{ color }}" mask="url(#mask-2)"></path>
                <path d="M8.0552,57.044 L3.3652,66.294 C0.0002,72.931 2.6522,81.04 9.2892,84.405 C11.2422,85.395 13.3222,85.864 15.3722,85.864 C18.1592,85.864 20.8872,84.995 23.1622,83.389 C24.8992,82.163 26.3712,80.509 27.4002,78.481 L38.2692,57.044 L23.1622,27.25 L8.0552,57.044 Z" id="Fill-30" class="fill-half-{{ color }}" mask="url(#mask-2)"></path>
            </g>
        </g>
    </g>
</svg>
